<svg xmlns="http://www.w3.org/2000/svg" width="1024" height="1024" viewBox="0 0 1024 1024" role="img" aria-label="Agent Copilot app icon">
  <defs>
    <linearGradient id="bg" x1="160" y1="104" x2="864" y2="920" gradientUnits="userSpaceOnUse">
      <stop offset="0" stop-color="#26313a"/>
      <stop offset="0.55" stop-color="#1f2a2d"/>
      <stop offset="1" stop-color="#161b22"/>
    </linearGradient>
    <linearGradient id="panel" x1="232" y1="196" x2="678" y2="790" gradientUnits="userSpaceOnUse">
      <stop offset="0" stop-color="#f7faf8"/>
      <stop offset="1" stop-color="#d8ebe6"/>
    </linearGradient>
    <linearGradient id="route" x1="360" y1="260" x2="808" y2="708" gradientUnits="userSpaceOnUse">
      <stop offset="0" stop-color="#2dd4bf"/>
      <stop offset="0.5" stop-color="#f6c453"/>
      <stop offset="1" stop-color="#f9735b"/>
    </linearGradient>
    <filter id="shadow" x="-20%" y="-20%" width="140%" height="140%">
      <feDropShadow dx="0" dy="28" stdDeviation="30" flood-color="#000000" flood-opacity="0.28"/>
    </filter>
    <filter id="soft" x="-30%" y="-30%" width="160%" height="160%">
      <feDropShadow dx="0" dy="12" stdDeviation="14" flood-color="#000000" flood-opacity="0.18"/>
    </filter>
  </defs>

  <rect x="92" y="92" width="840" height="840" rx="204" fill="url(#bg)"/>
  <path d="M188 248C260 178 374 150 516 164C686 180 803 261 850 394C894 521 853 679 753 778C641 889 474 902 343 834C213 766 150 645 154 502C157 397 178 289 188 248Z" fill="#ffffff" opacity="0.055"/>

  <g filter="url(#shadow)">
    <rect x="214" y="224" width="442" height="146" rx="44" fill="url(#panel)"/>
    <rect x="264" y="268" width="58" height="58" rx="20" fill="#2dd4bf"/>
    <rect x="348" y="268" width="212" height="22" rx="11" fill="#26313a" opacity="0.82"/>
    <rect x="348" y="308" width="158" height="20" rx="10" fill="#26313a" opacity="0.36"/>
  </g>

  <g filter="url(#shadow)">
    <rect x="270" y="430" width="446" height="146" rx="44" fill="#f7f2df"/>
    <rect x="320" y="474" width="58" height="58" rx="20" fill="#f6c453"/>
    <rect x="404" y="474" width="228" height="22" rx="11" fill="#26313a" opacity="0.82"/>
    <rect x="404" y="514" width="170" height="20" rx="10" fill="#26313a" opacity="0.36"/>
  </g>

  <g filter="url(#shadow)">
    <rect x="214" y="636" width="442" height="146" rx="44" fill="#f9ebe7"/>
    <rect x="264" y="680" width="58" height="58" rx="20" fill="#f9735b"/>
    <rect x="348" y="680" width="212" height="22" rx="11" fill="#26313a" opacity="0.82"/>
    <rect x="348" y="720" width="158" height="20" rx="10" fill="#26313a" opacity="0.36"/>
  </g>

  <path d="M638 302C756 332 806 410 794 508C781 614 696 662 590 684" fill="none" stroke="url(#route)" stroke-width="36" stroke-linecap="round" stroke-linejoin="round"/>
  <circle cx="638" cy="302" r="38" fill="#2dd4bf" stroke="#f7faf8" stroke-width="16" filter="url(#soft)"/>
  <circle cx="794" cy="508" r="38" fill="#f6c453" stroke="#f7faf8" stroke-width="16" filter="url(#soft)"/>
  <circle cx="590" cy="684" r="38" fill="#f9735b" stroke="#f7faf8" stroke-width="16" filter="url(#soft)"/>

  <g filter="url(#shadow)">
    <path d="M764 646L862 548C879 531 907 544 905 568L887 798C885 822 857 833 839 818L783 772L711 836C699 846 681 845 671 833L636 792C626 780 628 763 639 753L711 689L666 637C650 619 662 590 686 589L916 580" fill="none" stroke="#f7faf8" stroke-width="42" stroke-linecap="round" stroke-linejoin="round"/>
    <path d="M764 646L862 548C879 531 907 544 905 568L887 798C885 822 857 833 839 818L783 772L711 836C699 846 681 845 671 833L636 792C626 780 628 763 639 753L711 689L666 637C650 619 662 590 686 589L916 580" fill="none" stroke="#38bdf8" stroke-width="20" stroke-linecap="round" stroke-linejoin="round"/>
  </g>
</svg>
